<?xml version="1.0" encoding="utf-8"?>
<!-- Generator: Adobe Illustrator 19.0.0, SVG Export Plug-In . SVG Version: 6.00 Build 0)  -->
<svg version="1.1" xmlns="http://www.w3.org/2000/svg" xmlns:xlink="http://www.w3.org/1999/xlink" x="0px" y="0px"
	 viewBox="0 0 600 600" enable-background="new 0 0 600 600" xml:space="preserve">
<g id="FLOOR">
	<path id="XMLID_131_" fill="#99ADF9" d="M405.2,534.3H172.9c-1.7,0-3.1-1.4-3.1-3.1v-0.6c0-1.7,1.4-3.1,3.1-3.1h232.2
		c1.7,0,3.1,1.4,3.1,3.1v0.6C408.3,532.9,406.9,534.3,405.2,534.3z"/>
</g>
<g id="RAIN_1">
	<g id="XMLID_743_">
		<g id="XMLID_787_">
			<g id="XMLID_792_">
				<path id="XMLID_793_" fill="#C5DFFF" d="M161.3,180.8c-0.5,0-0.9-0.4-0.9-0.9v-4.7c0-0.5,0.4-0.9,0.9-0.9c0.5,0,0.9,0.4,0.9,0.9
					v4.7C162.1,180.4,161.7,180.8,161.3,180.8z"/>
			</g>
			<g id="XMLID_788_">
				<path id="XMLID_789_" fill="#C5DFFF" d="M161.3,222.8c-0.5,0-0.9-0.4-0.9-0.9v-10.5c0-0.5,0.4-0.9,0.9-0.9
					c0.5,0,0.9,0.4,0.9,0.9v10.5C162.1,222.4,161.7,222.8,161.3,222.8z M161.3,201.8c-0.5,0-0.9-0.4-0.9-0.9v-10.5
					c0-0.5,0.4-0.9,0.9-0.9c0.5,0,0.9,0.4,0.9,0.9v10.5C162.1,201.4,161.7,201.8,161.3,201.8z"/>
			</g>
		</g>
		<g id="XMLID_780_">
			<g id="XMLID_785_">
				<path id="XMLID_786_" fill="#C5DFFF" d="M173,180.8c-0.5,0-0.9-0.4-0.9-0.9v-4.7c0-0.5,0.4-0.9,0.9-0.9c0.5,0,0.9,0.4,0.9,0.9
					v4.7C173.9,180.4,173.5,180.8,173,180.8z"/>
			</g>
			<g id="XMLID_781_">
				<path id="XMLID_782_" fill="#C5DFFF" d="M173,222.8c-0.5,0-0.9-0.4-0.9-0.9v-10.5c0-0.5,0.4-0.9,0.9-0.9c0.5,0,0.9,0.4,0.9,0.9
					v10.5C173.9,222.4,173.5,222.8,173,222.8z M173,201.8c-0.5,0-0.9-0.4-0.9-0.9v-10.5c0-0.5,0.4-0.9,0.9-0.9
					c0.5,0,0.9,0.4,0.9,0.9v10.5C173.9,201.4,173.5,201.8,173,201.8z"/>
			</g>
		</g>
		<g id="XMLID_772_">
			<g id="XMLID_778_">
				<path id="XMLID_779_" fill="#C5DFFF" d="M184.7,180.8c-0.5,0-0.9-0.4-0.9-0.9v-4.7c0-0.5,0.4-0.9,0.9-0.9c0.5,0,0.9,0.4,0.9,0.9
					v4.7C185.6,180.4,185.2,180.8,184.7,180.8z"/>
			</g>
			<g id="XMLID_773_">
				<path id="XMLID_774_" fill="#C5DFFF" d="M184.7,243.7c-0.5,0-0.9-0.4-0.9-0.9v-10.5c0-0.5,0.4-0.9,0.9-0.9
					c0.5,0,0.9,0.4,0.9,0.9v10.5C185.6,243.4,185.2,243.7,184.7,243.7z M184.7,222.8c-0.5,0-0.9-0.4-0.9-0.9v-10.5
					c0-0.5,0.4-0.9,0.9-0.9c0.5,0,0.9,0.4,0.9,0.9v10.5C185.6,222.4,185.2,222.8,184.7,222.8z M184.7,201.8c-0.5,0-0.9-0.4-0.9-0.9
					v-10.5c0-0.5,0.4-0.9,0.9-0.9c0.5,0,0.9,0.4,0.9,0.9v10.5C185.6,201.4,185.2,201.8,184.7,201.8z"/>
			</g>
		</g>
		<g id="XMLID_764_">
			<g id="XMLID_770_">
				<path id="XMLID_771_" fill="#C5DFFF" d="M196.5,180.8c-0.5,0-0.9-0.4-0.9-0.9v-4.7c0-0.5,0.4-0.9,0.9-0.9c0.5,0,0.9,0.4,0.9,0.9
					v4.7C197.3,180.4,196.9,180.8,196.5,180.8z"/>
			</g>
			<g id="XMLID_765_">
				<path id="XMLID_766_" fill="#C5DFFF" d="M196.5,243.7c-0.5,0-0.9-0.4-0.9-0.9v-10.5c0-0.5,0.4-0.9,0.9-0.9
					c0.5,0,0.9,0.4,0.9,0.9v10.5C197.3,243.4,196.9,243.7,196.5,243.7z M196.5,222.8c-0.5,0-0.9-0.4-0.9-0.9v-10.5
					c0-0.5,0.4-0.9,0.9-0.9c0.5,0,0.9,0.4,0.9,0.9v10.5C197.3,222.4,196.9,222.8,196.5,222.8z M196.5,201.8c-0.5,0-0.9-0.4-0.9-0.9
					v-10.5c0-0.5,0.4-0.9,0.9-0.9c0.5,0,0.9,0.4,0.9,0.9v10.5C197.3,201.4,196.9,201.8,196.5,201.8z"/>
			</g>
		</g>
		<g id="XMLID_754_">
			<g id="XMLID_762_">
				<path id="XMLID_763_" fill="#C5DFFF" d="M208.2,180.8c-0.5,0-0.9-0.4-0.9-0.9v-4.7c0-0.5,0.4-0.9,0.9-0.9c0.5,0,0.9,0.4,0.9,0.9
					v4.7C209.1,180.4,208.7,180.8,208.2,180.8z"/>
			</g>
			<g id="XMLID_757_">
				<path id="XMLID_758_" fill="#C5DFFF" d="M208.2,243.7c-0.5,0-0.9-0.4-0.9-0.9v-10.5c0-0.5,0.4-0.9,0.9-0.9
					c0.5,0,0.9,0.4,0.9,0.9v10.5C209.1,243.4,208.7,243.7,208.2,243.7z M208.2,222.8c-0.5,0-0.9-0.4-0.9-0.9v-10.5
					c0-0.5,0.4-0.9,0.9-0.9c0.5,0,0.9,0.4,0.9,0.9v10.5C209.1,222.4,208.7,222.8,208.2,222.8z M208.2,201.8c-0.5,0-0.9-0.4-0.9-0.9
					v-10.5c0-0.5,0.4-0.9,0.9-0.9c0.5,0,0.9,0.4,0.9,0.9v10.5C209.1,201.4,208.7,201.8,208.2,201.8z"/>
			</g>
			<g id="XMLID_755_">
				<path id="XMLID_756_" fill="#C5DFFF" d="M208.2,259c-0.5,0-0.9-0.4-0.9-0.9v-4.7c0-0.5,0.4-0.9,0.9-0.9c0.5,0,0.9,0.4,0.9,0.9
					v4.7C209.1,258.6,208.7,259,208.2,259z"/>
			</g>
		</g>
		<g id="XMLID_744_">
			<g id="XMLID_752_">
				<path id="XMLID_753_" fill="#C5DFFF" d="M219.9,180.8c-0.5,0-0.9-0.4-0.9-0.9v-4.7c0-0.5,0.4-0.9,0.9-0.9c0.5,0,0.9,0.4,0.9,0.9
					v4.7C220.8,180.4,220.4,180.8,219.9,180.8z"/>
			</g>
			<g id="XMLID_747_">
				<path id="XMLID_748_" fill="#C5DFFF" d="M219.9,243.7c-0.5,0-0.9-0.4-0.9-0.9v-10.5c0-0.5,0.4-0.9,0.9-0.9
					c0.5,0,0.9,0.4,0.9,0.9v10.5C220.8,243.4,220.4,243.7,219.9,243.7z M219.9,222.8c-0.5,0-0.9-0.4-0.9-0.9v-10.5
					c0-0.5,0.4-0.9,0.9-0.9c0.5,0,0.9,0.4,0.9,0.9v10.5C220.8,222.4,220.4,222.8,219.9,222.8z M219.9,201.8c-0.5,0-0.9-0.4-0.9-0.9
					v-10.5c0-0.5,0.4-0.9,0.9-0.9c0.5,0,0.9,0.4,0.9,0.9v10.5C220.8,201.4,220.4,201.8,219.9,201.8z"/>
			</g>
			<g id="XMLID_745_">
				<path id="XMLID_746_" fill="#C5DFFF" d="M219.9,259c-0.5,0-0.9-0.4-0.9-0.9v-4.7c0-0.5,0.4-0.9,0.9-0.9c0.5,0,0.9,0.4,0.9,0.9
					v4.7C220.8,258.6,220.4,259,219.9,259z"/>
			</g>
		</g>
	</g>
</g>
<g id="RAIN_2">
	<g id="XMLID_152_">
		<g id="XMLID_132_">
			<g id="XMLID_216_">
				<g id="XMLID_229_">
					<path id="XMLID_596_" fill="#C5DFFF" d="M249.2,153.2c-0.5,0-0.9-0.4-0.9-0.9v-4.7c0-0.5,0.4-0.9,0.9-0.9
						c0.5,0,0.9,0.4,0.9,0.9v4.7C250.1,152.8,249.7,153.2,249.2,153.2z"/>
				</g>
				<g id="XMLID_227_">
					<path id="XMLID_592_" fill="#C5DFFF" d="M249.2,195.1c-0.5,0-0.9-0.4-0.9-0.9v-10.5c0-0.5,0.4-0.9,0.9-0.9
						c0.5,0,0.9,0.4,0.9,0.9v10.5C250.1,194.8,249.7,195.1,249.2,195.1z M249.2,174.2c-0.5,0-0.9-0.4-0.9-0.9v-10.5
						c0-0.5,0.4-0.9,0.9-0.9c0.5,0,0.9,0.4,0.9,0.9v10.5C250.1,173.8,249.7,174.2,249.2,174.2z"/>
				</g>
			</g>
			<g id="XMLID_210_">
				<g id="XMLID_225_">
					<path id="XMLID_590_" fill="#C5DFFF" d="M260.9,153.2c-0.5,0-0.9-0.4-0.9-0.9v-4.7c0-0.5,0.4-0.9,0.9-0.9s0.9,0.4,0.9,0.9v4.7
						C261.8,152.8,261.4,153.2,260.9,153.2z"/>
				</g>
				<g id="XMLID_224_">
					<path id="XMLID_586_" fill="#C5DFFF" d="M260.9,195.1c-0.5,0-0.9-0.4-0.9-0.9v-10.5c0-0.5,0.4-0.9,0.9-0.9s0.9,0.4,0.9,0.9
						v10.5C261.8,194.8,261.4,195.1,260.9,195.1z M260.9,174.2c-0.5,0-0.9-0.4-0.9-0.9v-10.5c0-0.5,0.4-0.9,0.9-0.9s0.9,0.4,0.9,0.9
						v10.5C261.8,173.8,261.4,174.2,260.9,174.2z"/>
				</g>
			</g>
			<g id="XMLID_204_">
				<g id="XMLID_221_">
					<path id="XMLID_584_" fill="#C5DFFF" d="M272.7,153.2c-0.5,0-0.9-0.4-0.9-0.9v-4.7c0-0.5,0.4-0.9,0.9-0.9s0.9,0.4,0.9,0.9v4.7
						C273.5,152.8,273.1,153.2,272.7,153.2z"/>
				</g>
				<g id="XMLID_220_">
					<path id="XMLID_580_" fill="#C5DFFF" d="M272.7,216.1c-0.5,0-0.9-0.4-0.9-0.9v-10.5c0-0.5,0.4-0.9,0.9-0.9s0.9,0.4,0.9,0.9
						v10.5C273.5,215.8,273.1,216.1,272.7,216.1z M272.7,195.1c-0.5,0-0.9-0.4-0.9-0.9v-10.5c0-0.5,0.4-0.9,0.9-0.9s0.9,0.4,0.9,0.9
						v10.5C273.5,194.8,273.1,195.1,272.7,195.1z M272.7,174.2c-0.5,0-0.9-0.4-0.9-0.9v-10.5c0-0.5,0.4-0.9,0.9-0.9s0.9,0.4,0.9,0.9
						v10.5C273.5,173.8,273.1,174.2,272.7,174.2z"/>
				</g>
			</g>
			<g id="XMLID_145_">
				<g id="XMLID_218_">
					<path id="XMLID_578_" fill="#C5DFFF" d="M307.8,153.2c-0.5,0-0.9-0.4-0.9-0.9v-4.7c0-0.5,0.4-0.9,0.9-0.9s0.9,0.4,0.9,0.9v4.7
						C308.7,152.8,308.3,153.2,307.8,153.2z"/>
				</g>
				<g id="XMLID_217_">
					<path id="XMLID_574_" fill="#C5DFFF" d="M307.8,216.1c-0.5,0-0.9-0.4-0.9-0.9v-10.5c0-0.5,0.4-0.9,0.9-0.9s0.9,0.4,0.9,0.9
						v10.5C308.7,215.8,308.3,216.1,307.8,216.1z M307.8,195.1c-0.5,0-0.9-0.4-0.9-0.9v-10.5c0-0.5,0.4-0.9,0.9-0.9s0.9,0.4,0.9,0.9
						v10.5C308.7,194.8,308.3,195.1,307.8,195.1z M307.8,174.2c-0.5,0-0.9-0.4-0.9-0.9v-10.5c0-0.5,0.4-0.9,0.9-0.9s0.9,0.4,0.9,0.9
						v10.5C308.7,173.8,308.3,174.2,307.8,174.2z"/>
				</g>
			</g>
			<g id="XMLID_252_">
				<g id="XMLID_214_">
					<path id="XMLID_572_" fill="#C5DFFF" d="M319.3,153.2c-0.5,0-0.9-0.4-0.9-0.9v-4.7c0-0.5,0.4-0.9,0.9-0.9s0.9,0.4,0.9,0.9v4.7
						C320.1,152.8,319.7,153.2,319.3,153.2z"/>
				</g>
				<g id="XMLID_213_">
					<path id="XMLID_568_" fill="#C5DFFF" d="M319.3,216.1c-0.5,0-0.9-0.4-0.9-0.9v-10.5c0-0.5,0.4-0.9,0.9-0.9s0.9,0.4,0.9,0.9
						v10.5C320.1,215.8,319.7,216.1,319.3,216.1z M319.3,195.1c-0.5,0-0.9-0.4-0.9-0.9v-10.5c0-0.5,0.4-0.9,0.9-0.9s0.9,0.4,0.9,0.9
						v10.5C320.1,194.8,319.7,195.1,319.3,195.1z M319.3,174.2c-0.5,0-0.9-0.4-0.9-0.9v-10.5c0-0.5,0.4-0.9,0.9-0.9s0.9,0.4,0.9,0.9
						v10.5C320.1,173.8,319.7,174.2,319.3,174.2z"/>
				</g>
			</g>
			<g id="XMLID_246_">
				<g id="XMLID_211_">
					<path id="XMLID_566_" fill="#C5DFFF" d="M331,153.2c-0.5,0-0.9-0.4-0.9-0.9v-4.7c0-0.5,0.4-0.9,0.9-0.9s0.9,0.4,0.9,0.9v4.7
						C331.9,152.8,331.5,153.2,331,153.2z"/>
				</g>
				<g id="XMLID_209_">
					<path id="XMLID_562_" fill="#C5DFFF" d="M331,216.1c-0.5,0-0.9-0.4-0.9-0.9v-10.5c0-0.5,0.4-0.9,0.9-0.9s0.9,0.4,0.9,0.9v10.5
						C331.9,215.8,331.5,216.1,331,216.1z M331,195.1c-0.5,0-0.9-0.4-0.9-0.9v-10.5c0-0.5,0.4-0.9,0.9-0.9s0.9,0.4,0.9,0.9v10.5
						C331.9,194.8,331.5,195.1,331,195.1z M331,174.2c-0.5,0-0.9-0.4-0.9-0.9v-10.5c0-0.5,0.4-0.9,0.9-0.9s0.9,0.4,0.9,0.9v10.5
						C331.9,173.8,331.5,174.2,331,174.2z"/>
				</g>
			</g>
			<g id="XMLID_240_">
				<g id="XMLID_207_">
					<path id="XMLID_560_" fill="#C5DFFF" d="M342.7,153.2c-0.5,0-0.9-0.4-0.9-0.9v-4.7c0-0.5,0.4-0.9,0.9-0.9s0.9,0.4,0.9,0.9v4.7
						C343.6,152.8,343.2,153.2,342.7,153.2z"/>
				</g>
				<g id="XMLID_206_">
					<path id="XMLID_556_" fill="#C5DFFF" d="M342.7,216.1c-0.5,0-0.9-0.4-0.9-0.9v-10.5c0-0.5,0.4-0.9,0.9-0.9s0.9,0.4,0.9,0.9
						v10.5C343.6,215.8,343.2,216.1,342.7,216.1z M342.7,195.1c-0.5,0-0.9-0.4-0.9-0.9v-10.5c0-0.5,0.4-0.9,0.9-0.9s0.9,0.4,0.9,0.9
						v10.5C343.6,194.8,343.2,195.1,342.7,195.1z M342.7,174.2c-0.5,0-0.9-0.4-0.9-0.9v-10.5c0-0.5,0.4-0.9,0.9-0.9s0.9,0.4,0.9,0.9
						v10.5C343.6,173.8,343.2,174.2,342.7,174.2z"/>
				</g>
			</g>
			<g id="XMLID_282_">
				<g id="XMLID_199_">
					<path id="XMLID_544_" fill="#C5DFFF" d="M296.1,234.9c-0.5,0-0.9-0.4-0.9-0.9v-10.5c0-0.5,0.4-0.9,0.9-0.9
						c0.5,0,0.9,0.4,0.9,0.9v10.5C297,234.5,296.6,234.9,296.1,234.9z"/>
				</g>
			</g>
			<g id="XMLID_276_">
				<g id="XMLID_195_">
					<path id="XMLID_538_" fill="#C5DFFF" d="M307.8,234.9c-0.5,0-0.9-0.4-0.9-0.9v-10.5c0-0.5,0.4-0.9,0.9-0.9s0.9,0.4,0.9,0.9
						v10.5C308.7,234.5,308.3,234.9,307.8,234.9z"/>
				</g>
			</g>
			<g id="XMLID_270_">
				<g id="XMLID_192_">
					<path id="XMLID_531_" fill="#C5DFFF" d="M319.3,234.9c-0.5,0-0.9-0.4-0.9-0.9v-10.5c0-0.5,0.4-0.9,0.9-0.9s0.9,0.4,0.9,0.9
						v10.5C320.1,234.5,319.7,234.9,319.3,234.9z"/>
				</g>
			</g>
			<g id="XMLID_242_">
				<g id="XMLID_189_">
					<path id="XMLID_485_" fill="#C5DFFF" d="M331,255.9c-0.5,0-0.9-0.4-0.9-0.9v-10.5c0-0.5,0.4-0.9,0.9-0.9s0.9,0.4,0.9,0.9V255
						C331.9,255.5,331.5,255.9,331,255.9z M331,234.9c-0.5,0-0.9-0.4-0.9-0.9v-10.5c0-0.5,0.4-0.9,0.9-0.9s0.9,0.4,0.9,0.9v10.5
						C331.9,234.5,331.5,234.9,331,234.9z"/>
				</g>
			</g>
			<g id="XMLID_146_">
				<g id="XMLID_186_">
					<path id="XMLID_266_" fill="#C5DFFF" d="M342.7,276.9c-0.5,0-0.9-0.4-0.9-0.9v-10.5c0-0.5,0.4-0.9,0.9-0.9s0.9,0.4,0.9,0.9V276
						C343.6,276.5,343.2,276.9,342.7,276.9z M342.7,255.9c-0.5,0-0.9-0.4-0.9-0.9v-10.5c0-0.5,0.4-0.9,0.9-0.9s0.9,0.4,0.9,0.9V255
						C343.6,255.5,343.2,255.9,342.7,255.9z M342.7,234.9c-0.5,0-0.9-0.4-0.9-0.9v-10.5c0-0.5,0.4-0.9,0.9-0.9s0.9,0.4,0.9,0.9v10.5
						C343.6,234.5,343.2,234.9,342.7,234.9z"/>
				</g>
			</g>
			<g id="XMLID_237_">
				<g id="XMLID_259_">
					<path id="XMLID_370_" fill="#C5DFFF" d="M354.5,276.9c-0.5,0-0.9-0.4-0.9-0.9v-10.5c0-0.5,0.4-0.9,0.9-0.9s0.9,0.4,0.9,0.9V276
						C355.3,276.5,354.9,276.9,354.5,276.9z M354.5,255.9c-0.5,0-0.9-0.4-0.9-0.9v-10.5c0-0.5,0.4-0.9,0.9-0.9s0.9,0.4,0.9,0.9V255
						C355.3,255.5,354.9,255.9,354.5,255.9z M354.5,234.9c-0.5,0-0.9-0.4-0.9-0.9v-10.5c0-0.5,0.4-0.9,0.9-0.9s0.9,0.4,0.9,0.9v10.5
						C355.3,234.5,354.9,234.9,354.5,234.9z"/>
				</g>
			</g>
			<g id="XMLID_205_">
				<g id="XMLID_215_">
					<path id="XMLID_219_" fill="#C5DFFF" d="M366.2,276.9c-0.5,0-0.9-0.4-0.9-0.9v-10.5c0-0.5,0.4-0.9,0.9-0.9
						c0.5,0,0.9,0.4,0.9,0.9V276C367,276.5,366.7,276.9,366.2,276.9z M366.2,255.9c-0.5,0-0.9-0.4-0.9-0.9v-10.5
						c0-0.5,0.4-0.9,0.9-0.9c0.5,0,0.9,0.4,0.9,0.9V255C367,255.5,366.7,255.9,366.2,255.9z M366.2,234.9c-0.5,0-0.9-0.4-0.9-0.9
						v-10.5c0-0.5,0.4-0.9,0.9-0.9c0.5,0,0.9,0.4,0.9,0.9v10.5C367,234.5,366.7,234.9,366.2,234.9z"/>
				</g>
				<g id="XMLID_208_">
					<path id="XMLID_212_" fill="#C5DFFF" d="M366.2,292.1c-0.5,0-0.9-0.4-0.9-0.9v-4.7c0-0.5,0.4-0.9,0.9-0.9
						c0.5,0,0.9,0.4,0.9,0.9v4.7C367,291.7,366.7,292.1,366.2,292.1z"/>
				</g>
			</g>
			<g id="XMLID_178_">
				<g id="XMLID_190_">
					<path id="XMLID_193_" fill="#C5DFFF" d="M377.9,276.9c-0.5,0-0.9-0.4-0.9-0.9v-10.5c0-0.5,0.4-0.9,0.9-0.9s0.9,0.4,0.9,0.9V276
						C378.8,276.5,378.4,276.9,377.9,276.9z M377.9,255.9c-0.5,0-0.9-0.4-0.9-0.9v-10.5c0-0.5,0.4-0.9,0.9-0.9s0.9,0.4,0.9,0.9V255
						C378.8,255.5,378.4,255.9,377.9,255.9z M377.9,234.9c-0.5,0-0.9-0.4-0.9-0.9v-10.5c0-0.5,0.4-0.9,0.9-0.9s0.9,0.4,0.9,0.9v10.5
						C378.8,234.5,378.4,234.9,377.9,234.9z"/>
				</g>
				<g id="XMLID_182_">
					<path id="XMLID_187_" fill="#C5DFFF" d="M377.9,292.1c-0.5,0-0.9-0.4-0.9-0.9v-4.7c0-0.5,0.4-0.9,0.9-0.9s0.9,0.4,0.9,0.9v4.7
						C378.8,291.7,378.4,292.1,377.9,292.1z"/>
				</g>
			</g>
			<g id="XMLID_234_">
				<g id="XMLID_184_">
					<path id="XMLID_264_" fill="#C5DFFF" d="M354.5,153.2c-0.5,0-0.9-0.4-0.9-0.9v-4.7c0-0.5,0.4-0.9,0.9-0.9s0.9,0.4,0.9,0.9v4.7
						C355.3,152.8,354.9,153.2,354.5,153.2z"/>
				</g>
				<g id="XMLID_183_">
					<path id="XMLID_260_" fill="#C5DFFF" d="M354.5,216.1c-0.5,0-0.9-0.4-0.9-0.9v-10.5c0-0.5,0.4-0.9,0.9-0.9s0.9,0.4,0.9,0.9
						v10.5C355.3,215.8,354.9,216.1,354.5,216.1z M354.5,195.1c-0.5,0-0.9-0.4-0.9-0.9v-10.5c0-0.5,0.4-0.9,0.9-0.9s0.9,0.4,0.9,0.9
						v10.5C355.3,194.8,354.9,195.1,354.5,195.1z M354.5,174.2c-0.5,0-0.9-0.4-0.9-0.9v-10.5c0-0.5,0.4-0.9,0.9-0.9s0.9,0.4,0.9,0.9
						v10.5C355.3,173.8,354.9,174.2,354.5,174.2z"/>
				</g>
			</g>
			<g id="XMLID_228_">
				<g id="XMLID_181_">
					<path id="XMLID_258_" fill="#C5DFFF" d="M366.2,153.2c-0.5,0-0.9-0.4-0.9-0.9v-4.7c0-0.5,0.4-0.9,0.9-0.9
						c0.5,0,0.9,0.4,0.9,0.9v4.7C367,152.8,366.7,153.2,366.2,153.2z"/>
				</g>
				<g id="XMLID_179_">
					<path id="XMLID_254_" fill="#C5DFFF" d="M366.2,216.1c-0.5,0-0.9-0.4-0.9-0.9v-10.5c0-0.5,0.4-0.9,0.9-0.9
						c0.5,0,0.9,0.4,0.9,0.9v10.5C367,215.8,366.7,216.1,366.2,216.1z M366.2,195.1c-0.5,0-0.9-0.4-0.9-0.9v-10.5
						c0-0.5,0.4-0.9,0.9-0.9c0.5,0,0.9,0.4,0.9,0.9v10.5C367,194.8,366.7,195.1,366.2,195.1z M366.2,174.2c-0.5,0-0.9-0.4-0.9-0.9
						v-10.5c0-0.5,0.4-0.9,0.9-0.9c0.5,0,0.9,0.4,0.9,0.9v10.5C367,173.8,366.7,174.2,366.2,174.2z"/>
				</g>
			</g>
			<g id="XMLID_222_">
				<g id="XMLID_480_">
					<path id="XMLID_251_" fill="#C5DFFF" d="M377.9,153.2c-0.5,0-0.9-0.4-0.9-0.9v-4.7c0-0.5,0.4-0.9,0.9-0.9s0.9,0.4,0.9,0.9v4.7
						C378.8,152.8,378.4,153.2,377.9,153.2z"/>
				</g>
				<g id="XMLID_479_">
					<path id="XMLID_247_" fill="#C5DFFF" d="M377.9,216.1c-0.5,0-0.9-0.4-0.9-0.9v-10.5c0-0.5,0.4-0.9,0.9-0.9s0.9,0.4,0.9,0.9
						v10.5C378.8,215.8,378.4,216.1,377.9,216.1z M377.9,195.1c-0.5,0-0.9-0.4-0.9-0.9v-10.5c0-0.5,0.4-0.9,0.9-0.9s0.9,0.4,0.9,0.9
						v10.5C378.8,194.8,378.4,195.1,377.9,195.1z M377.9,174.2c-0.5,0-0.9-0.4-0.9-0.9v-10.5c0-0.5,0.4-0.9,0.9-0.9s0.9,0.4,0.9,0.9
						v10.5C378.8,173.8,378.4,174.2,377.9,174.2z"/>
				</g>
			</g>
		</g>
		<g id="XMLID_198_">
			<g id="XMLID_483_">
				<path id="XMLID_244_" fill="#C5DFFF" d="M284.4,153.2c-0.5,0-0.9-0.4-0.9-0.9v-4.7c0-0.5,0.4-0.9,0.9-0.9s0.9,0.4,0.9,0.9v4.7
					C285.2,152.8,284.9,153.2,284.4,153.2z"/>
			</g>
			<g id="XMLID_380_">
				<path id="XMLID_238_" fill="#C5DFFF" d="M284.4,216.1c-0.5,0-0.9-0.4-0.9-0.9v-10.5c0-0.5,0.4-0.9,0.9-0.9s0.9,0.4,0.9,0.9v10.5
					C285.2,215.8,284.9,216.1,284.4,216.1z M284.4,195.1c-0.5,0-0.9-0.4-0.9-0.9v-10.5c0-0.5,0.4-0.9,0.9-0.9s0.9,0.4,0.9,0.9v10.5
					C285.2,194.8,284.9,195.1,284.4,195.1z M284.4,174.2c-0.5,0-0.9-0.4-0.9-0.9v-10.5c0-0.5,0.4-0.9,0.9-0.9s0.9,0.4,0.9,0.9v10.5
					C285.2,173.8,284.9,174.2,284.4,174.2z"/>
			</g>
		</g>
		<g id="XMLID_159_">
			<g id="XMLID_377_">
				<path id="XMLID_236_" fill="#C5DFFF" d="M296.1,153.2c-0.5,0-0.9-0.4-0.9-0.9v-4.7c0-0.5,0.4-0.9,0.9-0.9c0.5,0,0.9,0.4,0.9,0.9
					v4.7C297,152.8,296.6,153.2,296.1,153.2z"/>
			</g>
			<g id="XMLID_376_">
				<path id="XMLID_231_" fill="#C5DFFF" d="M296.1,216.1c-0.5,0-0.9-0.4-0.9-0.9v-10.5c0-0.5,0.4-0.9,0.9-0.9
					c0.5,0,0.9,0.4,0.9,0.9v10.5C297,215.8,296.6,216.1,296.1,216.1z M296.1,195.1c-0.5,0-0.9-0.4-0.9-0.9v-10.5
					c0-0.5,0.4-0.9,0.9-0.9c0.5,0,0.9,0.4,0.9,0.9v10.5C297,194.8,296.6,195.1,296.1,195.1z M296.1,174.2c-0.5,0-0.9-0.4-0.9-0.9
					v-10.5c0-0.5,0.4-0.9,0.9-0.9c0.5,0,0.9,0.4,0.9,0.9v10.5C297,173.8,296.6,174.2,296.1,174.2z"/>
			</g>
		</g>
	</g>
</g>
<g id="RAIN_3">
	<g id="XMLID_425_">
		<g id="XMLID_465_">
			<g id="XMLID_473_">
				<path id="XMLID_474_" fill="#C5DFFF" d="M403.6,234.6c-0.5,0-0.9-0.4-0.9-0.9V229c0-0.5,0.4-0.9,0.9-0.9s0.9,0.4,0.9,0.9v4.7
					C404.4,234.2,404,234.6,403.6,234.6z"/>
			</g>
			<g id="XMLID_468_">
				<path id="XMLID_469_" fill="#C5DFFF" d="M403.6,297.5c-0.5,0-0.9-0.4-0.9-0.9v-10.5c0-0.5,0.4-0.9,0.9-0.9s0.9,0.4,0.9,0.9v10.5
					C404.4,297.1,404,297.5,403.6,297.5z M403.6,276.5c-0.5,0-0.9-0.4-0.9-0.9v-10.5c0-0.5,0.4-0.9,0.9-0.9s0.9,0.4,0.9,0.9v10.5
					C404.4,276.1,404,276.5,403.6,276.5z M403.6,255.5c-0.5,0-0.9-0.4-0.9-0.9v-10.5c0-0.5,0.4-0.9,0.9-0.9s0.9,0.4,0.9,0.9v10.5
					C404.4,255.2,404,255.5,403.6,255.5z"/>
			</g>
			<g id="XMLID_466_">
				<path id="XMLID_467_" fill="#C5DFFF" d="M403.6,312.7c-0.5,0-0.9-0.4-0.9-0.9v-4.7c0-0.5,0.4-0.9,0.9-0.9s0.9,0.4,0.9,0.9v4.7
					C404.4,312.4,404,312.7,403.6,312.7z"/>
			</g>
		</g>
		<g id="XMLID_455_">
			<g id="XMLID_463_">
				<path id="XMLID_464_" fill="#C5DFFF" d="M415.3,234.6c-0.5,0-0.9-0.4-0.9-0.9V229c0-0.5,0.4-0.9,0.9-0.9c0.5,0,0.9,0.4,0.9,0.9
					v4.7C416.1,234.2,415.8,234.6,415.3,234.6z"/>
			</g>
			<g id="XMLID_458_">
				<path id="XMLID_459_" fill="#C5DFFF" d="M415.3,297.5c-0.5,0-0.9-0.4-0.9-0.9v-10.5c0-0.5,0.4-0.9,0.9-0.9
					c0.5,0,0.9,0.4,0.9,0.9v10.5C416.1,297.1,415.8,297.5,415.3,297.5z M415.3,276.5c-0.5,0-0.9-0.4-0.9-0.9v-10.5
					c0-0.5,0.4-0.9,0.9-0.9c0.5,0,0.9,0.4,0.9,0.9v10.5C416.1,276.1,415.8,276.5,415.3,276.5z M415.3,255.5c-0.5,0-0.9-0.4-0.9-0.9
					v-10.5c0-0.5,0.4-0.9,0.9-0.9c0.5,0,0.9,0.4,0.9,0.9v10.5C416.1,255.2,415.8,255.5,415.3,255.5z"/>
			</g>
			<g id="XMLID_456_">
				<path id="XMLID_457_" fill="#C5DFFF" d="M415.3,312.7c-0.5,0-0.9-0.4-0.9-0.9v-4.7c0-0.5,0.4-0.9,0.9-0.9c0.5,0,0.9,0.4,0.9,0.9
					v4.7C416.1,312.4,415.8,312.7,415.3,312.7z"/>
			</g>
		</g>
		<g id="XMLID_447_">
			<g id="XMLID_453_">
				<path id="XMLID_454_" fill="#C5DFFF" d="M427,234.6c-0.5,0-0.9-0.4-0.9-0.9V229c0-0.5,0.4-0.9,0.9-0.9s0.9,0.4,0.9,0.9v4.7
					C427.9,234.2,427.5,234.6,427,234.6z"/>
			</g>
			<g id="XMLID_448_">
				<path id="XMLID_449_" fill="#C5DFFF" d="M427,297.5c-0.5,0-0.9-0.4-0.9-0.9v-10.5c0-0.5,0.4-0.9,0.9-0.9s0.9,0.4,0.9,0.9v10.5
					C427.9,297.1,427.5,297.5,427,297.5z M427,276.5c-0.5,0-0.9-0.4-0.9-0.9v-10.5c0-0.5,0.4-0.9,0.9-0.9s0.9,0.4,0.9,0.9v10.5
					C427.9,276.1,427.5,276.5,427,276.5z M427,255.5c-0.5,0-0.9-0.4-0.9-0.9v-10.5c0-0.5,0.4-0.9,0.9-0.9s0.9,0.4,0.9,0.9v10.5
					C427.9,255.2,427.5,255.5,427,255.5z"/>
			</g>
		</g>
		<g id="XMLID_439_">
			<g id="XMLID_445_">
				<path id="XMLID_446_" fill="#C5DFFF" d="M438.8,234.6c-0.5,0-0.9-0.4-0.9-0.9V229c0-0.5,0.4-0.9,0.9-0.9s0.9,0.4,0.9,0.9v4.7
					C439.6,234.2,439.2,234.6,438.8,234.6z"/>
			</g>
			<g id="XMLID_440_">
				<path id="XMLID_441_" fill="#C5DFFF" d="M438.8,297.5c-0.5,0-0.9-0.4-0.9-0.9v-10.5c0-0.5,0.4-0.9,0.9-0.9s0.9,0.4,0.9,0.9v10.5
					C439.6,297.1,439.2,297.5,438.8,297.5z M438.8,276.5c-0.5,0-0.9-0.4-0.9-0.9v-10.5c0-0.5,0.4-0.9,0.9-0.9s0.9,0.4,0.9,0.9v10.5
					C439.6,276.1,439.2,276.5,438.8,276.5z M438.8,255.5c-0.5,0-0.9-0.4-0.9-0.9v-10.5c0-0.5,0.4-0.9,0.9-0.9s0.9,0.4,0.9,0.9v10.5
					C439.6,255.2,439.2,255.5,438.8,255.5z"/>
			</g>
		</g>
		<g id="XMLID_432_">
			<g id="XMLID_437_">
				<path id="XMLID_438_" fill="#C5DFFF" d="M450.5,234.6c-0.5,0-0.9-0.4-0.9-0.9V229c0-0.5,0.4-0.9,0.9-0.9s0.9,0.4,0.9,0.9v4.7
					C451.3,234.2,451,234.6,450.5,234.6z"/>
			</g>
			<g id="XMLID_433_">
				<path id="XMLID_434_" fill="#C5DFFF" d="M450.5,276.5c-0.5,0-0.9-0.4-0.9-0.9v-10.5c0-0.5,0.4-0.9,0.9-0.9s0.9,0.4,0.9,0.9v10.5
					C451.3,276.1,451,276.5,450.5,276.5z M450.5,255.5c-0.5,0-0.9-0.4-0.9-0.9v-10.5c0-0.5,0.4-0.9,0.9-0.9s0.9,0.4,0.9,0.9v10.5
					C451.3,255.2,451,255.5,450.5,255.5z"/>
			</g>
		</g>
		<g id="XMLID_426_">
			<g id="XMLID_430_">
				<path id="XMLID_431_" fill="#C5DFFF" d="M462.2,234.6c-0.5,0-0.9-0.4-0.9-0.9V229c0-0.5,0.4-0.9,0.9-0.9c0.5,0,0.9,0.4,0.9,0.9
					v4.7C463.1,234.2,462.7,234.6,462.2,234.6z"/>
			</g>
			<g id="XMLID_427_">
				<path id="XMLID_428_" fill="#C5DFFF" d="M462.2,255.5c-0.5,0-0.9-0.4-0.9-0.9v-10.5c0-0.5,0.4-0.9,0.9-0.9
					c0.5,0,0.9,0.4,0.9,0.9v10.5C463.1,255.2,462.7,255.5,462.2,255.5z"/>
			</g>
		</g>
	</g>
</g>
<g id="CLOUDS_1_1_">
	<g id="XMLID_128_">
		<path id="XMLID_143_" fill="#273D7A" d="M390.8,136.8c0,3.8-37.6,7.9-78.3,7.9s-71.5,2.8-75.8-3.1c-0.6-0.8-0.6-1.6,0-2.3
			c3-3.7,20.5-4.9,23.5-5.1h0c0.3,0,0.4,0,0.4,0s-12-13.2-2.8-23.9c9.2-10.7,19.1-1.3,19.1-1.3s-3.9-20.5,7.2-25.6c0,0,0,0,0,0
			c0.3-0.1,0.6-0.3,0.9-0.4c11.9-4.2,16.5,11.1,16.8,11.9c0,0,0,0,0,0c0,0,0.3-20.6,18.6-22.4c3.1-0.3,5.9,0.3,8.3,1.6
			c11.5,6.1,14.6,26.6,14.6,26.6s0,0,0,0l0,0c0.8-0.8,9.8-9.3,19.5-3.8c10,5.7,4.5,20.4,4.3,20.8c0.3-0.1,7.4-1.7,9.7,2.3
			c2.3,4.1,0,10.4,0,10.4s5.3,0.9,9.3,2.4c2.3,0.9,4.3,2,4.6,3.3C390.8,136.5,390.8,136.6,390.8,136.8z"/>
		<path id="XMLID_138_" fill="#072359" d="M264.4,130.3c2.2,4.1,3.7,5.6,3.7,5.6s-3.4,0.1-8-1.7c0.3,0,0.4,0,0.4,0
			s-12-13.2-2.8-23.9c9.2-10.7,19.1-1.3,19.1-1.3s-3.9-20.5,7.2-25.6c-1.2,2.4-2.5,6.4-2.4,11.4c0.2,8.8,3.1,21.4,3.1,21.4
			s-12-6.9-19.7-4.2C257.5,114.7,262.2,126.3,264.4,130.3z"/>
		<path id="XMLID_137_" fill="#072359" d="M390.8,136.8c0,3.8-37.6,7.9-78.3,7.9s-71.5,2.8-75.8-3.1c-0.6-0.8-0.6-1.6,0-2.3
			c5,1.6,15.2,3.5,35.1,2.8c33.3-1.3,100.2-1.5,116.5-5.1c0.9-0.2,1.7-0.4,2.5-0.6C390.8,136.5,390.8,136.6,390.8,136.8z"/>
		<path id="XMLID_140_" fill="#506893" d="M328.7,74.3c-4.2,0.4-10,1.8-15.3,5.9c-9.5,7.4-10.4,21.4-10.4,21.4l-1.1-6.5
			c0,0,0.3-20.6,18.6-22.4C323.5,72.4,326.3,73,328.7,74.3z"/>
		<path id="XMLID_142_" fill="#506893" d="M373.4,132.2c0,0,1.4-4.6-1.5-8.4c-2.9-3.8-10.7-0.8-10.7-0.8s6.2-15.5-1.3-22.1
			c-7.3-6.4-16.2-0.3-16.6,0l0,0c0.8-0.8,9.8-9.3,19.5-3.8c10,5.7,4.5,20.4,4.3,20.8c0.3-0.1,7.4-1.7,9.7,2.3c2.3,4.1,0,10.4,0,10.4
			s5.3,0.9,9.3,2.4C382,132.6,373.4,132.2,373.4,132.2z"/>
	</g>
</g>
<g id="CLOUDS_1">
	<g id="XMLID_415_">
		<path id="XMLID_418_" fill="#273D7A" d="M228.1,169.3c-2.8,3-14.3,4.7-36.4,7c-17.8,1.9-39.9,2.6-41.5-1.4
			c-1.6-4,12.7-5.6,12.7-5.6s-4.7-5.6,1.9-12.4c4.8-5,12.6-0.2,12.9,0c-0.1-0.3-7-14.5-0.4-21.9c1.1-1.2,2.5-2.3,4.4-3
			c0.1,0,0.2-0.1,0.3-0.1c13.4-4.8,20.8,23.1,20.8,23.1s12.7-6.6,16.9-0.7c4,5.5,1.7,11.2,1.4,11.9c0,0,0,0.1,0,0.1s5.5,0,7.1,1.3
			C228.7,168,228.8,168.6,228.1,169.3z"/>
		<path id="XMLID_417_" fill="#072359" d="M228.1,169.3c-2.8,3-14.3,4.7-36.4,7c-17.8,1.9-39.9,2.6-41.5-1.4
			c-1.6-4,12.7-5.6,12.7-5.6s-4.7-5.6,1.9-12.4c4.8-5,12.6-0.2,12.9,0c-0.1-0.3-7-14.5-0.4-21.9c-0.5,2.3-0.6,5.6,0.5,9.9
			c2.8,11.3,7.5,17.8,7.5,17.8s-12-7-17.8-3.4c-5.8,3.6,0.6,11.1,0.6,11.1s-11.9,0.9-12,3.8c-0.2,2.8,33.5-1.1,49.7-2.7
			c13.9-1.3,19.7-2.5,22.5-4C228.7,168,228.8,168.6,228.1,169.3z"/>
		<path id="XMLID_416_" fill="#506893" d="M221.1,166.2l-1.2,0.6c0,0,1-9.1-3.8-11.5c-4.9-2.4-15.5,4.9-15.5,4.9s-0.9-9.6-7-18.8
			c-3.9-5.9-8.7-8.4-11.6-9.5c13.4-4.8,20.8,23.1,20.8,23.1s12.7-6.6,16.9-0.7C223.7,159.8,221.4,165.6,221.1,166.2z"/>
	</g>
</g>
<g id="LIGHTNING_3">
	<g id="XMLID_609_">
		<path id="XMLID_615_" fill="#FEC272" d="M202.9,186.9l-15.3,19.2c-0.5,0.7-1.6,0.1-1.3-0.7l0.1-0.1l4.6-11.7c0-0.1,0.1-0.2,0-0.3
			c0-0.4-0.3-0.6-0.7-0.6l-6,0.7c-1.4,0.2-2.4-1.2-1.8-2.5l0.1-0.3l5-10.7l0.1-0.2c0.3-0.7-0.2-1.4-0.9-1.4l-6,0.1
			c-2,0-3.2-2.1-2.2-3.8l0.2-0.4l14-23.4c0.3-0.4,0.7-0.6,1.1-0.5c0.5,0.1,0.9,0.6,0.8,1.2l-2.6,14.8c-0.1,0.8,0.6,1.5,1.3,1.3
			l6.6-1.4c0.5-0.1,1,0,1.4,0.2c0.7,0.5,1.1,1.5,0.7,2.4l-6.6,13.5c-0.3,0.6,0.1,1.3,0.8,1.4h0c0,0,0,0,0.1,0l5.2,0.1
			c0.3,0,0.6,0.1,0.8,0.2C203.3,184.6,203.7,185.9,202.9,186.9z"/>
		<path id="XMLID_614_" fill="#FF8D76" d="M187.6,180L187.6,180l0-0.2c0.3-0.7-0.2-1.4-0.9-1.4l-6,0.1c-2,0-3.2-2.1-2.2-3.8l0.2-0.4
			c0.3,0.4,0.8,0.7,1.8,0.8c1.8,0.1,6.7,0,8.2,0C190.1,175.3,187.6,180,187.6,180z"/>
		<path id="XMLID_613_" fill="#FF8D76" d="M191,193.2c0-0.4-0.3-0.6-0.7-0.6l-6,0.7c-1.4,0.2-2.4-1.2-1.8-2.5l0.1-0.3
			c0.5,0.1,1.4,0.3,2.8,0.1c2.5-0.3,6.1-1,6.4-0.7C192,190.4,191.2,192.7,191,193.2z"/>
		<path id="XMLID_612_" fill="#FF8D76" d="M192,166.4c-0.1,0.8,0.6,1.5,1.3,1.3c-1.9,0.7-3.8,0.9-3.5-1c0.3-1.7,3.4-14,3.9-16.3
			c0.5,0.1,0.9,0.6,0.8,1.2L192,166.4z"/>
		<path id="XMLID_611_" fill="#FF8D76" d="M195.5,182.5c-0.3,0.6,0.1,1.3,0.8,1.4c-0.1,0-0.2,0-0.3,0c-1.7,0-3.3-0.5-2.1-2.8
			c1-2,6.2-11.8,7.6-14.4c0.7,0.5,1.1,1.5,0.7,2.4L195.5,182.5z"/>
		<path id="XMLID_610_" fill="#FF8D76" d="M202.9,186.9l-15.3,19.2c-0.5,0.7-1.6,0.1-1.3-0.7l0.1-0.1c0.6-0.6,1.7-1.6,3.2-3.8
			c1.8-2.6,10.9-14.8,12.8-17.4C203.3,184.6,203.7,185.9,202.9,186.9z"/>
	</g>
</g>
<g id="LIGHTNING_1">
	<g id="XMLID_401_">
		<path id="XMLID_407_" fill="#FEC272" d="M329.2,198.6l-36.8,46.2c-1.3,1.6-3.8,0.2-3.1-1.8l0.1-0.3l11.2-28.2
			c0.1-0.2,0.1-0.4,0.1-0.7c0-0.8-0.8-1.6-1.7-1.4l-14.4,1.7c-3.3,0.4-5.7-2.9-4.3-5.9l0.3-0.6l11.9-25.7l0.2-0.4
			c0.7-1.6-0.5-3.5-2.2-3.4l-14.4,0.3c-4.8,0.1-7.8-5.1-5.3-9.2l0.5-0.8l33.6-56.2c0.6-1.1,1.7-1.4,2.7-1.2c1.2,0.3,2.2,1.4,1.9,2.9
			l-6.2,35.5c-0.3,1.9,1.3,3.5,3.2,3.1l16-3.4c1.2-0.3,2.4,0,3.3,0.6c1.8,1.1,2.7,3.5,1.6,5.7l-15.8,32.5c-0.7,1.5,0.3,3.2,1.9,3.3
			h0c0,0,0.1,0,0.1,0l12.4,0.2c0.7,0,1.3,0.2,1.9,0.5C330.1,193,331.1,196.3,329.2,198.6z"/>
		<path id="XMLID_406_" fill="#FF8D76" d="M292.5,181.9l-0.1,0l0.2-0.4c0.7-1.6-0.5-3.5-2.2-3.4l-14.4,0.3c-4.8,0.1-7.8-5.1-5.3-9.2
			l0.5-0.8c0.7,0.8,2,1.8,4.2,1.9c4.3,0.2,16.1-0.1,19.6,0.1C298.5,170.6,292.5,181.9,292.5,181.9z"/>
		<path id="XMLID_405_" fill="#FF8D76" d="M300.6,213.8c0-0.8-0.8-1.6-1.7-1.4l-14.4,1.7c-3.3,0.4-5.7-2.9-4.3-5.9l0.3-0.6
			c1.3,0.3,3.5,0.6,6.7,0.2c5.9-0.8,14.7-2.5,15.4-1.6C303.1,207,301.1,212.6,300.6,213.8z"/>
		<path id="XMLID_404_" fill="#FF8D76" d="M303.1,149.4c-0.3,1.9,1.3,3.5,3.2,3.1c-4.7,1.7-9.2,2.1-8.4-2.3c0.7-4,8.1-33.7,9.4-39.1
			c1.2,0.3,2.2,1.4,1.9,2.9L303.1,149.4z"/>
		<path id="XMLID_403_" fill="#FF8D76" d="M311.4,187.9c-0.7,1.5,0.3,3.2,1.9,3.3c-0.3,0-0.5,0-0.8,0c-4.2,0-7.9-1.2-5.1-6.8
			c2.4-4.9,14.8-28.3,18.2-34.7c1.8,1.1,2.7,3.5,1.6,5.7L311.4,187.9z"/>
		<path id="XMLID_402_" fill="#FF8D76" d="M329.2,198.6l-36.8,46.2c-1.3,1.6-3.8,0.2-3.1-1.8l0.1-0.3c1.5-1.4,4-3.9,7.7-9.1
			c4.4-6.3,26.2-35.6,30.7-41.7C330.1,193,331.1,196.3,329.2,198.6z"/>
	</g>
</g>
<g id="LIGHTNING_2">
	<g id="XMLID_616_">
		<path id="XMLID_622_" fill="#FEC272" d="M437.1,225.6l-12.7,15.9c-0.4,0.6-1.3,0.1-1.1-0.6l0-0.1l3.8-9.7c0-0.1,0-0.2,0-0.2
			c0-0.3-0.3-0.5-0.6-0.5l-5,0.6c-1.1,0.1-2-1-1.5-2l0.1-0.2l4.1-8.8l0.1-0.1c0.3-0.6-0.2-1.2-0.8-1.2l-5,0.1
			c-1.6,0-2.7-1.8-1.8-3.2l0.2-0.3l11.6-19.4c0.2-0.4,0.6-0.5,0.9-0.4c0.4,0.1,0.8,0.5,0.7,1l-2.1,12.2c-0.1,0.6,0.5,1.2,1.1,1.1
			l5.5-1.2c0.4-0.1,0.8,0,1.1,0.2c0.6,0.4,0.9,1.2,0.6,2l-5.5,11.2c-0.2,0.5,0.1,1.1,0.6,1.1h0c0,0,0,0,0,0l4.3,0.1
			c0.2,0,0.5,0.1,0.6,0.2C437.4,223.7,437.7,224.8,437.1,225.6z"/>
		<path id="XMLID_621_" fill="#FF8D76" d="M424.5,219.8L424.5,219.8l0-0.1c0.3-0.6-0.2-1.2-0.8-1.2l-5,0.1c-1.6,0-2.7-1.8-1.8-3.2
			l0.2-0.3c0.2,0.3,0.7,0.6,1.5,0.7c1.5,0.1,5.5,0,6.8,0S424.5,219.8,424.5,219.8z"/>
		<path id="XMLID_620_" fill="#FF8D76" d="M427.3,230.8c0-0.3-0.3-0.5-0.6-0.5l-5,0.6c-1.1,0.1-2-1-1.5-2l0.1-0.2
			c0.4,0.1,1.2,0.2,2.3,0.1c2-0.3,5.1-0.8,5.3-0.5C428.1,228.5,427.4,230.4,427.3,230.8z"/>
		<path id="XMLID_619_" fill="#FF8D76" d="M428.1,208.6c-0.1,0.6,0.5,1.2,1.1,1.1c-1.6,0.6-3.2,0.7-2.9-0.8
			c0.2-1.4,2.8-11.6,3.3-13.5c0.4,0.1,0.8,0.5,0.7,1L428.1,208.6z"/>
		<path id="XMLID_618_" fill="#FF8D76" d="M431,221.9c-0.2,0.5,0.1,1.1,0.6,1.1c-0.1,0-0.2,0-0.3,0c-1.4,0-2.7-0.4-1.7-2.4
			c0.8-1.7,5.1-9.8,6.3-12c0.6,0.4,0.9,1.2,0.6,2L431,221.9z"/>
		<path id="XMLID_617_" fill="#FF8D76" d="M437.1,225.6l-12.7,15.9c-0.4,0.6-1.3,0.1-1.1-0.6l0-0.1c0.5-0.5,1.4-1.3,2.6-3.1
			c1.5-2.2,9-12.3,10.6-14.4C437.4,223.7,437.7,224.8,437.1,225.6z"/>
	</g>
</g>
<g id="CLOUDS_2">
	<g id="XMLID_390_">
		<path id="XMLID_393_" fill="#273D7A" d="M466.3,215.9c-0.1,2.3-18.3,4.8-38.6,5.3c-20.3,0.5-33.2-1.5-31.8-3.8
			c1.4-2.2,8.8-3,8.8-3s-7-5.4-3.3-13c3.8-7.6,11.9-2.2,11.9-2.2s-2.6-11.6,5-15.3c1.2-0.6,2.6-1,4.3-1.1c0.9-0.1,1.7,0,2.6,0.1
			c10.9,1.6,15.5,18.9,15.5,18.9s6.2-6.5,10.8-2.6c4.6,3.9,2.6,10.7,2.6,10.7s2.2-1.4,5-0.7c1.5,0.4,2.1,1.4,2.4,2.4
			c0.3,0.9,0.3,1.7,0.3,1.7s2.4,0.2,3.7,1.1C466,214.7,466.3,215.2,466.3,215.9z"/>
		<path id="XMLID_392_" fill="#072359" d="M466.3,215.9c-0.1,2.3-18.3,4.8-38.6,5.3c-20.3,0.5-33.2-1.5-31.8-3.8
			c1.4-2.2,8.8-3,8.8-3s-7-5.4-3.3-13c3.8-7.6,11.9-2.2,11.9-2.2s-2.6-11.6,5-15.3c-0.8,2-1.8,5.2-1.6,8.5c0.5,6.2,3,11,3.2,11.3
			c-0.4-0.2-9.2-4.6-13.9-1.9c-4.8,2.8,2.2,13.6,2.2,13.6s-6.4,1.4-3.3,2.8s33.2,1.2,44.7-0.1c7.7-0.9,13.1-2.6,15.9-3.7
			C466,214.7,466.3,215.2,466.3,215.9z"/>
		<path id="XMLID_391_" fill="#506893" d="M461.5,211.5c-0.3-0.2-0.7-0.3-1-0.5c-2.8-1.4-8.6,1.4-8.6,1.4s1.2-8.7-2.3-11
			c-3.5-2.3-10,5.2-10,5.2s-0.8-4.7-4.9-12.8c-2.5-4.9-6.6-8.7-9.5-11c10.9,1.6,15.5,18.9,15.5,18.9s6.2-6.5,10.8-2.6
			c4.6,3.9,2.6,10.7,2.6,10.7s2.2-1.4,5-0.7C460.5,209.4,461.2,210.5,461.5,211.5z"/>
	</g>
</g>
<g id="SERVER_1">
	<g id="XMLID_20_">
		<g id="XMLID_34_">
			<path id="XMLID_64_" fill="#E1ECFF" d="M311.2,466.4v45c0,3.6-2.9,6.6-6.6,6.6H188.3c-3.6,0-6.6-2.9-6.6-6.6v-45
				c0-3.6,2.9-6.6,6.6-6.6h116.4C308.3,459.8,311.2,462.8,311.2,466.4z"/>
			<g id="XMLID_27_">
				<circle id="XMLID_26_" fill="#273D7A" cx="201" cy="472" r="3.4"/>
				<circle id="XMLID_28_" fill="#FF8D76" cx="213.1" cy="472" r="3.4"/>
				<circle id="XMLID_29_" fill="#FF8D76" cx="225.1" cy="472" r="3.4"/>
			</g>
			<path id="XMLID_30_" fill="#273D7A" d="M293,490h-29.7c-1.3,0-2.4-1.1-2.4-2.4l0,0c0-1.3,1.1-2.4,2.4-2.4H293
				c1.3,0,2.4,1.1,2.4,2.4l0,0C295.4,488.9,294.4,490,293,490z"/>
			<circle id="XMLID_31_" fill="#FF8D76" cx="293.6" cy="487.6" r="5"/>
			<path id="XMLID_57_" fill="#273D7A" d="M251.2,518h-54.3l2-4.9c1-2.5,3.4-4.1,6.1-4.1h38.2c2.7,0,5,1.6,6.1,4.1L251.2,518z"/>
			<g id="XMLID_33_">
				<rect id="XMLID_25_" x="197.6" y="518" fill="#273D7A" width="99.6" height="9.9"/>
				<rect id="XMLID_32_" x="197.6" y="518" fill="#072359" width="99.6" height="4.9"/>
			</g>
			<path id="XMLID_61_" fill="#CDE0FC" d="M192.1,459.8V518h-3.8c-3.6,0-6.6-2.9-6.6-6.6v-45c0-3.6,2.9-6.6,6.6-6.6H192.1z"/>
			<path id="XMLID_60_" fill="#F0F5FC" d="M311.2,466.4v45c0,3.6-2.9,6.6-6.6,6.6h-2.1v-58.2h2.1
				C308.3,459.8,311.2,462.8,311.2,466.4z"/>
		</g>
		<g id="XMLID_36_">
			<path id="XMLID_71_" fill="#E1ECFF" d="M311.2,413.9v31.6c0,3.6-2.9,6.6-6.6,6.6H188.3c-3.6,0-6.6-2.9-6.6-6.6v-31.6
				c0-3.6,2.9-6.6,6.6-6.6h116.4C308.3,407.3,311.2,410.3,311.2,413.9z"/>
			<g id="XMLID_67_">
				<circle id="XMLID_70_" fill="#FF8D76" cx="201" cy="419.5" r="3.4"/>
				<circle id="XMLID_69_" fill="#FF8D76" cx="213.1" cy="419.5" r="3.4"/>
				<circle id="XMLID_68_" fill="#273D7A" cx="225.1" cy="419.5" r="3.4"/>
			</g>
			<path id="XMLID_66_" fill="#273D7A" d="M293,427.7h-29.7c-1.3,0-2.4-1.1-2.4-2.4l0,0c0-1.3,1.1-2.4,2.4-2.4H293
				c1.3,0,2.4,1.1,2.4,2.4l0,0C295.4,426.6,294.4,427.7,293,427.7z"/>
			<circle id="XMLID_65_" fill="#FF8D76" cx="293.6" cy="425.2" r="5"/>
			<path id="XMLID_63_" fill="#273D7A" d="M251.2,452.1h-54.3l2-4.9c1-2.5,3.4-4.1,6.1-4.1h38.2c2.7,0,5,1.6,6.1,4.1L251.2,452.1z"
				/>
			<g id="XMLID_58_">
				<rect id="XMLID_62_" x="197.6" y="452.1" fill="#273D7A" width="99.6" height="7.7"/>
				<rect id="XMLID_59_" x="197.6" y="452.1" fill="#072359" width="99.6" height="3.9"/>
			</g>
			<path id="XMLID_56_" fill="#CDE0FC" d="M192.1,407.3v44.7h-3.8c-3.6,0-6.6-2.9-6.6-6.6v-31.6c0-3.6,2.9-6.6,6.6-6.6H192.1z"/>
			<path id="XMLID_37_" fill="#F0F5FC" d="M311.2,413.9v31.6c0,3.6-2.9,6.6-6.6,6.6h-2.1v-44.7h2.1
				C308.3,407.3,311.2,410.3,311.2,413.9z"/>
		</g>
		<g id="XMLID_72_">
			<path id="XMLID_85_" fill="#E1ECFF" d="M311.2,367.9V393c0,3.6-2.9,6.6-6.6,6.6H188.3c-3.6,0-6.6-2.9-6.6-6.6v-25.2
				c0-3.6,2.9-6.6,6.6-6.6h116.4C308.3,361.3,311.2,364.2,311.2,367.9z"/>
			<g id="XMLID_81_">
				<circle id="XMLID_84_" fill="#273D7A" cx="201" cy="373.5" r="3.4"/>
				<circle id="XMLID_83_" fill="#FF8D76" cx="213.1" cy="373.5" r="3.4"/>
				<circle id="XMLID_82_" fill="#FF8D76" cx="225.1" cy="373.5" r="3.4"/>
			</g>
			<path id="XMLID_80_" fill="#273D7A" d="M293,381.6h-29.7c-1.3,0-2.4-1.1-2.4-2.4v0c0-1.3,1.1-2.4,2.4-2.4H293
				c1.3,0,2.4,1.1,2.4,2.4v0C295.4,380.5,294.4,381.6,293,381.6z"/>
			<circle id="XMLID_79_" fill="#FF8D76" cx="293.6" cy="379.2" r="5"/>
			<path id="XMLID_78_" fill="#273D7A" d="M251.2,399.6h-54.3l2-4.9c1-2.5,3.4-4.1,6.1-4.1h38.2c2.7,0,5,1.6,6.1,4.1L251.2,399.6z"
				/>
			<g id="XMLID_75_">
				<rect id="XMLID_77_" x="197.6" y="399.6" fill="#273D7A" width="99.6" height="7.7"/>
				<rect id="XMLID_76_" x="197.6" y="399.6" fill="#072359" width="99.6" height="3.9"/>
			</g>
			<path id="XMLID_74_" fill="#CDE0FC" d="M192.1,361.3v38.3h-3.8c-3.6,0-6.6-2.9-6.6-6.6v-25.2c0-3.6,2.9-6.6,6.6-6.6H192.1z"/>
			<path id="XMLID_73_" fill="#F0F5FC" d="M311.2,367.9V393c0,3.6-2.9,6.6-6.6,6.6h-2.1v-38.3h2.1
				C308.3,361.3,311.2,364.2,311.2,367.9z"/>
		</g>
		<g id="XMLID_86_">
			<path id="XMLID_99_" fill="#E1ECFF" d="M311.2,321.8V347c0,3.6-2.9,6.6-6.6,6.6H188.3c-3.6,0-6.6-2.9-6.6-6.6v-25.2
				c0-3.6,2.9-6.6,6.6-6.6h116.4C308.3,315.3,311.2,318.2,311.2,321.8z"/>
			<g id="XMLID_95_">
				<circle id="XMLID_98_" fill="#FF8D76" cx="201" cy="327.4" r="3.4"/>
				<circle id="XMLID_97_" fill="#FF8D76" cx="213.1" cy="327.4" r="3.4"/>
				<circle id="XMLID_96_" fill="#273D7A" cx="225.1" cy="327.4" r="3.4"/>
			</g>
			<path id="XMLID_94_" fill="#273D7A" d="M293,335.6h-29.7c-1.3,0-2.4-1.1-2.4-2.4l0,0c0-1.3,1.1-2.4,2.4-2.4H293
				c1.3,0,2.4,1.1,2.4,2.4l0,0C295.4,334.5,294.4,335.6,293,335.6z"/>
			<circle id="XMLID_93_" fill="#FF8D76" cx="293.6" cy="333.2" r="5"/>
			<path id="XMLID_92_" fill="#273D7A" d="M251.2,353.6h-54.3l2-4.9c1-2.5,3.4-4.1,6.1-4.1h38.2c2.7,0,5,1.6,6.1,4.1L251.2,353.6z"
				/>
			<g id="XMLID_89_">
				<rect id="XMLID_91_" x="197.6" y="353.6" fill="#273D7A" width="99.6" height="7.7"/>
				<rect id="XMLID_90_" x="197.6" y="353.6" fill="#072359" width="99.6" height="3.9"/>
			</g>
			<path id="XMLID_88_" fill="#CDE0FC" d="M192.1,315.3v38.3h-3.8c-3.6,0-6.6-2.9-6.6-6.6v-25.2c0-3.6,2.9-6.6,6.6-6.6H192.1z"/>
			<path id="XMLID_87_" fill="#F0F5FC" d="M311.2,321.8V347c0,3.6-2.9,6.6-6.6,6.6h-2.1v-38.3h2.1
				C308.3,315.3,311.2,318.2,311.2,321.8z"/>
		</g>
	</g>
</g>
<g id="SERVER_2">
	<g id="XMLID_295_">
		<path id="XMLID_314_" fill="#FF97C9" d="M383.5,405.3v116.8c0,3.1-2.6,5.7-5.7,5.7h-58.3c-3.2,0-5.7-2.6-5.7-5.7V405.3
			c0-3.2,2.6-5.7,5.7-5.7h58.3C380.9,399.6,383.5,402.2,383.5,405.3z"/>
		<path id="XMLID_313_" fill="#F774B9" d="M332.3,399.6v128.2h-12.8c-3.2,0-5.7-2.6-5.7-5.7V405.3c0-3.2,2.6-5.7,5.7-5.7H332.3z"/>
		<path id="XMLID_312_" fill="#5A7FDB" d="M321.6,413h29.9c1.6,0,2.8,1.3,2.8,2.8v13.5c0,1.6-1.3,2.8-2.8,2.8h-29.9
			c-1.6,0-2.8-1.3-2.8-2.8v-13.5C318.7,414.2,320,413,321.6,413z"/>
		<path id="XMLID_311_" fill="#273D7A" d="M378.5,415.8v13.5c0,1.6-1.3,2.8-2.8,2.8h-13.8c-1.6,0-2.8-1.3-2.8-2.8v-13.5
			c0-1.6,1.3-2.8,2.8-2.8h13.8C377.2,413,378.5,414.2,378.5,415.8z"/>
		<g id="XMLID_304_">
			<path id="XMLID_310_" fill="#273D7A" d="M356.9,518h-16.6c-1.2,0-2.2-1-2.2-2.2v-25.5c0-1.2,1-2.2,2.2-2.2h16.6
				c1.2,0,2.2,1,2.2,2.2v25.5C359.1,517,358.1,518,356.9,518z"/>
			<path id="XMLID_309_" fill="#142966" d="M355.6,505h-14c-0.9,0-1.6-0.7-1.6-1.6v-11c0-0.9,0.7-1.6,1.6-1.6h14
				c0.9,0,1.6,0.7,1.6,1.6v11C357.3,504.3,356.5,505,355.6,505z"/>
			<path id="XMLID_308_" fill="#142966" d="M355.4,515.3h-13.6c-1,0-1.8-0.8-1.8-1.8v-4.7c0-1,0.8-1.8,1.8-1.8h13.6
				c1,0,1.8,0.8,1.8,1.8v4.7C357.3,514.5,356.4,515.3,355.4,515.3z"/>
			<circle id="XMLID_305_" fill="#FEC272" cx="348.6" cy="511.2" r="2.6"/>
		</g>
		<g id="XMLID_296_">
			<path id="XMLID_303_" fill="#273D7A" d="M378.5,440.6V477c0,1.7-1.3,3.1-3,3.1h-53.9c-1,0-2-0.6-2.5-1.4
				c-0.3-0.5-0.5-1.1-0.5-1.7v-36.4c0-1.7,1.3-3.1,3-3.1h53.9c1.4,0,2.6,1,2.9,2.4C378.5,440.2,378.5,440.4,378.5,440.6z"/>
			<g id="XMLID_297_">
				<path id="XMLID_302_" fill="#94ADEA" d="M376.3,442.6v32.5c0,1.5-1.2,2.7-2.7,2.7h-49.9c-1,0-1.8-0.5-2.3-1.3
					c-0.3-0.4-0.4-0.9-0.4-1.5v-32.5c0-1.5,1.2-2.7,2.7-2.7h49.9c1.3,0,2.4,0.9,2.7,2.2C376.3,442.2,376.3,442.4,376.3,442.6z"/>
				<g id="XMLID_298_">
					<path id="XMLID_301_" fill="#738DE0" d="M376.3,442l-38.9,35.9h-13.7c-1,0-1.8-0.5-2.3-1.3l39.9-36.8h12.3
						C374.9,439.8,376,440.7,376.3,442z"/>
					<polygon id="XMLID_300_" fill="#738DE0" points="376.3,455.1 376.3,471.1 369,477.9 351.6,477.9 					"/>
					<polygon id="XMLID_299_" fill="#738DE0" points="344.5,439.8 320.9,461.6 320.9,445.5 327.1,439.8 					"/>
				</g>
			</g>
		</g>
	</g>
</g>
<g id="ORNAMENT_3">
	<g id="XMLID_106_">
		<path id="XMLID_124_" fill="#FF8D76" d="M293.6,313.5h-57.4l1-2.8l6.1-16.5l5.4-14.7l6.1-16.5L261,246c0.2-0.7,0.6-1.2,1.1-1.6
			c2-1.9,5.6-1.3,6.7,1.6l2.5,6.9l3.8,10.4l3.4,9.3l3.8,10.4l3.4,9.3l3.8,10.4L293.6,313.5z"/>
		<g id="XMLID_105_">
			<polygon id="XMLID_121_" fill="#273D7A" points="275.1,263.3 257.7,274 248.7,279.5 254.7,263.1 259.8,260 271.3,252.9 			"/>
			<polygon id="XMLID_129_" fill="#273D7A" points="282.3,282.9 253.7,300.5 237.2,310.7 243.3,294.2 255.8,286.5 278.5,272.5 			
				"/>
			<polygon id="XMLID_127_" fill="#273D7A" points="289.6,302.6 271.8,313.5 251.2,313.5 251.8,313.1 285.8,292.2 			"/>
		</g>
		<path id="XMLID_122_" fill="#FF8D76" d="M262.1,244.4l-10.3,69.1h-15.6l1-2.8l6.1-16.5l5.4-14.7l6.1-16.5L261,246
			C261.3,245.4,261.6,244.8,262.1,244.4z"/>
		<polygon id="XMLID_123_" fill="#FF8D76" points="251.2,313.5 251.8,313.1 251.8,313.5 		"/>
		<polygon id="XMLID_126_" fill="#072359" points="255.8,286.5 253.7,300.5 237.2,310.7 243.3,294.2 		"/>
		<polygon id="XMLID_119_" fill="#072359" points="259.8,260 257.7,274 248.7,279.5 254.7,263.1 		"/>
		<path id="XMLID_102_" fill="#FF8D76" d="M294.4,315.3h-60.5c-1.8,0-3.2-1.5-3.2-3.2v-0.2c0-1.8,1.5-3.2,3.2-3.2h60.5
			c1.8,0,3.2,1.5,3.2,3.2v0.2C297.6,313.8,296.2,315.3,294.4,315.3z"/>
	</g>
</g>
<g id="ORNAMENT_1">
	<g id="XMLID_120_">
		<polygon id="XMLID_191_" fill="#FEC272" points="182.5,304.9 169.3,271.3 160.9,275.8 181.5,305.4 		"/>
		<polygon id="XMLID_167_" fill="#FEC272" points="148.1,271.3 140.1,279.9 176.3,309.9 177.9,308.4 		"/>
		<polygon id="XMLID_125_" fill="#FEC272" points="147.2,293.7 142.6,301.3 172.7,314.6 173.4,313.4 		"/>
	</g>
</g>
<g id="ORNAMENT_2">
	<path id="XMLID_172_" fill="#FEC272" d="M377.2,373.7l-2.1,14.4c0,0,6.1-0.3,10.7,3.6c6,5.2,6.7,10,6.7,10l22.6-11.5
		c0,0-15.1,5-20.1-0.1c-5-5.1-0.8-15.4-0.8-15.4s-6.7,8.7-11.7,7.2C377.6,380.5,377.2,373.7,377.2,373.7z"/>
</g>
</svg>
