<svg width="120" height="120" viewBox="0 0 120 120" fill="none" xmlns="http://www.w3.org/2000/svg">
<circle cx="60" cy="60" r="60" fill="#2FD524"/>
<path fill-rule="evenodd" clip-rule="evenodd" d="M60.4001 36.4256C47.1594 36.4256 36.4257 47.1593 36.4257 60.4C36.4257 64.3666 37.3874 68.1023 39.0883 71.3927C39.2482 71.7021 39.3317 72.0453 39.3317 72.3936V81.4684H48.4065C48.7548 81.4684 49.098 81.5518 49.4074 81.7118C52.6978 83.4127 56.4334 84.3743 60.4001 84.3743C73.6408 84.3743 84.3744 73.6407 84.3744 60.4C84.3744 47.1593 73.6408 36.4256 60.4001 36.4256ZM32.0668 60.4C32.0668 44.7519 44.752 32.0667 60.4001 32.0667C76.0481 32.0667 88.7334 44.7519 88.7334 60.4C88.7334 76.048 76.0481 88.7333 60.4001 88.7333C55.9127 88.7333 51.6635 87.6886 47.8877 85.8273H37.1522C35.9485 85.8273 34.9727 84.8515 34.9727 83.6478V72.9123C33.1115 69.1366 32.0668 64.8874 32.0668 60.4Z" fill="#030D45"/>
<path d="M54.5881 60.4C54.5881 62.0049 53.2871 63.306 51.6821 63.306C50.0772 63.306 48.7762 62.0049 48.7762 60.4C48.7762 58.7951 50.0772 57.494 51.6821 57.494C53.2871 57.494 54.5881 58.7951 54.5881 60.4Z" fill="#030D45"/>
<path d="M63.3061 60.4C63.3061 62.0049 62.005 63.306 60.4001 63.306C58.7952 63.306 57.4941 62.0049 57.4941 60.4C57.4941 58.7951 58.7952 57.494 60.4001 57.494C62.005 57.494 63.3061 58.7951 63.3061 60.4Z" fill="#030D45"/>
<path d="M72.024 60.4C72.024 62.0049 70.723 63.306 69.118 63.306C67.5131 63.306 66.212 62.0049 66.212 60.4C66.212 58.7951 67.5131 57.494 69.118 57.494C70.723 57.494 72.024 58.7951 72.024 60.4Z" fill="#030D45"/>
</svg>
